<svg xmlns="http://www.w3.org/2000/svg" viewBox="0 0 512 512" role="img" aria-labelledby="title desc">
  <title id="title">Child Medication Dosage icon</title>
  <desc id="desc">A soft baby face with a medicine drop, created as an original CC0 icon.</desc>
  <!-- SPDX-License-Identifier: CC0-1.0 -->
  <defs>
    <linearGradient id="background" x1="80" y1="64" x2="432" y2="448" gradientUnits="userSpaceOnUse">
      <stop offset="0" stop-color="#BCE7E0"/>
      <stop offset="1" stop-color="#7DB8D8"/>
    </linearGradient>
    <linearGradient id="skin" x1="164" y1="136" x2="350" y2="388" gradientUnits="userSpaceOnUse">
      <stop offset="0" stop-color="#FFE4C2"/>
      <stop offset="1" stop-color="#F5B989"/>
    </linearGradient>
    <filter id="shadow" x="-20%" y="-20%" width="140%" height="140%" color-interpolation-filters="sRGB">
      <feDropShadow dx="0" dy="12" stdDeviation="16" flood-color="#1F556A" flood-opacity="0.22"/>
    </filter>
  </defs>
  <rect width="512" height="512" rx="112" fill="url(#background)"/>
  <g filter="url(#shadow)">
    <circle cx="256" cy="264" r="150" fill="url(#skin)"/>
    <path d="M184 156c18-48 69-78 119-61 31 11 51 36 56 65-31-15-69-14-102 5-30 17-55 16-73-9z" fill="#6B4634"/>
    <circle cx="208" cy="267" r="15" fill="#3D2A24"/>
    <circle cx="304" cy="267" r="15" fill="#3D2A24"/>
    <path d="M216 331c25 24 55 24 80 0" fill="none" stroke="#9D5544" stroke-width="17" stroke-linecap="round"/>
    <path d="M256 289c-9 13-13 23-13 31 0 8 6 14 13 14s13-6 13-14c0-8-4-18-13-31z" fill="#E88F7D"/>
    <circle cx="170" cy="302" r="16" fill="#F3A289" opacity="0.65"/>
    <circle cx="342" cy="302" r="16" fill="#F3A289" opacity="0.65"/>
  </g>
  <g filter="url(#shadow)">
    <path d="M359 332c-28 40-42 67-42 91 0 29 22 51 50 51s50-22 50-51c0-24-15-51-43-91-4-6-11-6-15 0z" fill="#4D9DE0"/>
    <path d="M349 414c0-19 8-38 25-62 20 31 31 54 31 71 0 22-17 39-38 39-11 0-21-4-28-12 6 3 12 4 19 4 21 0 38-18 38-40 0-11-4-24-12-39-23 23-35 45-35 39z" fill="#2F80C7" opacity="0.6"/>
    <path d="M350 401h35m-18-18v36" stroke="#FFFFFF" stroke-width="16" stroke-linecap="round"/>
  </g>
</svg>
